<?xml version="1.0" encoding="UTF-8"?>
<svg id="_레이어_1" data-name="레이어 1" xmlns="http://www.w3.org/2000/svg" xmlns:xlink="http://www.w3.org/1999/xlink" viewBox="0 0 352.59 94.75">
  <defs>
    <style>
      .cls-1 {
        fill: url(#_무제_그라디언트_200);
      }

      .cls-1, .cls-2, .cls-3 {
        stroke-width: 0px;
      }

      .cls-2 {
        fill: url(#_무제_그라디언트_208);
      }

      .cls-3 {
        fill: #111;
      }
    </style>
    <linearGradient id="_무제_그라디언트_208" data-name="무제 그라디언트 208" x1="-539.64" y1="1551.24" x2="-634.21" y2="1551.24" gradientTransform="translate(217.87 -1586.37) rotate(-15)" gradientUnits="userSpaceOnUse">
      <stop offset=".25" stop-color="#2ccbe5"/>
      <stop offset="1" stop-color="#2ccbe5" stop-opacity=".35"/>
    </linearGradient>
    <linearGradient id="_무제_그라디언트_200" data-name="무제 그라디언트 200" x1="-635.41" y1="1516.67" x2="-539.75" y2="1516.67" gradientTransform="translate(217.87 -1586.37) rotate(-15)" gradientUnits="userSpaceOnUse">
      <stop offset=".25" stop-color="#111"/>
      <stop offset="1" stop-color="#111" stop-opacity=".3"/>
    </linearGradient>
  </defs>
  <g>
    <g>
      <path class="cls-3" d="M137.64,5.82c-.7-2.33-2.84-5.35-7.16-5.35h0c-4.32,0-6.46,3.02-7.16,5.35l-9.65,31.53s-.03.19-.03.19c-.01.36.21.67.53.71h.06s5.87,0,5.87,0c.29,0,.54-.2.63-.52l2.89-10.08h13.72l2.9,10.08c.09.31.33.52.63.52h5.93c.31-.04.54-.35.52-.71,0,0-.02-.18-.02-.19l-9.65-31.53ZM125.29,21.86l4.02-14c.03-.08.22-.99,1.17-.99h0c.94,0,1.14.91,1.17.99l4.02,14h-10.39Z"/>
      <path class="cls-3" d="M162.09,9.2c-2.15,0-4,.28-5.62.76V1.01c0-.31-.23-.54-.53-.54h-5.74c-.3,0-.54.23-.54.54v36.71c0,.3.24.52.54.52h5.74c.31,0,.53-.23.53-.52v-18.93c0-1.56,0-3.17,5.62-3.17s5.61,1.61,5.61,3.17v18.93c0,.3.24.52.54.52h5.73c.3,0,.54-.23.54-.52v-18.93c0-4.38-2.15-9.6-12.42-9.6"/>
      <path class="cls-3" d="M272.16,9.2c-2.13,0-3.99.28-5.6.77V1.01c0-.29-.24-.54-.55-.54h-5.73c-.3,0-.54.25-.54.54v28.37c0,4.38,2.15,9.58,12.43,9.58s12.44-5.21,12.44-9.58v-10.58c0-4.37-2.16-9.6-12.44-9.6M277.79,29.38c0,1.56,0,3.17-5.63,3.17s-5.6-1.61-5.6-3.17v-10.58c0-1.57,0-3.18,5.6-3.18s5.63,1.61,5.63,3.18v10.58Z"/>
      <path class="cls-3" d="M243.26,9.2c-6.49,0-10.5,2.1-11.89,6.23-.12.36.05.59.34.7l5.47,1.62c.28.08.58-.06.67-.34.16-.44.6-1.79,5.42-1.79,5.63,0,5.63,1.61,5.63,3.18v1.73c-.92-.01-5.55-.12-5.55-.12-10.35,0-12.52,4.37-12.52,8.97s2.16,9.58,12.43,9.58,12.43-5.21,12.43-9.58v-10.58c0-4.37-2.15-9.6-12.43-9.6M248.89,29.38c0,1.56,0,3.17-5.63,3.17s-5.62-1.61-5.62-3.17,0-3.18,5.62-3.18c0,0,4.74.09,5.63.11v3.07Z"/>
      <path class="cls-3" d="M227.81,31.82h-8.6c-4.14,0-4.31-2.79-4.31-4.36V1c0-.3-.23-.54-.54-.54h-5.74c-.3,0-.52.24-.52.54v26.46c0,3.59,1.2,10.78,11.1,10.78h8.6c.31,0,.55-.24.55-.54v-5.35c0-.29-.24-.54-.55-.54"/>
      <path class="cls-3" d="M191.15,9.2c-10.26,0-12.43,5.21-12.43,9.6v18.93c0,.3.25.52.54.52h5.73c.31,0,.54-.23.54-.52v-18.93c0-1.56,0-3.17,5.62-3.17s5.61,1.61,5.61,3.17v18.93c0,.3.25.52.55.52h5.73c.31,0,.55-.23.55-.52v-18.93c0-4.38-2.16-9.6-12.45-9.6"/>
    </g>
    <g>
      <path class="cls-3" d="M120.54,83.71c0,.41.1.76.25.86l2.84,2.79c.1.15.36.3.91.3h13.09c1.78,0,2.28.46,2.28,2.08v2.38c0,1.52-.56,2.13-2.23,2.13h-13.64c-1.93,0-3.75-.51-4.92-1.67l-3.7-3.8c-1.07-1.12-1.78-2.74-1.78-4.26v-17.65c0-1.62.66-3.2,1.78-4.26l3.7-3.8c1.22-1.17,3.04-1.67,4.92-1.67h13.64c1.67,0,2.23.81,2.23,2.13v2.33c0,1.67-.71,2.08-2.28,2.08h-13.09c-.46,0-.76.2-.86.3l-2.89,2.89c-.15.1-.25.46-.25.81v16.03Z"/>
      <path class="cls-3" d="M150.82,85.69c0,.56.25,1.01.56,1.27l.56.56c.1.2.76.35,1.07.35h1.67c1.47,0,1.98.46,1.98,1.98v2.33c0,1.47-.2,2.08-2.03,2.08h-3.45c-1.78,0-2.59-.61-3.6-1.62l-1.67-1.62c-1.32-1.37-1.67-2.59-1.67-4.51v-29.77c0-1.42.46-2.08,1.98-2.08h2.54c1.52,0,2.08.66,2.08,2.08v28.96Z"/>
      <path class="cls-3" d="M177.65,68.7l2.28,2.33c1.01,1.01,1.52,2.54,1.52,4.11v11.01c0,1.62-.66,2.94-1.67,4.06l-2.23,2.38c-1.22,1.27-2.49,1.67-4.72,1.67h-5.83c-2.23,0-3.55-.41-4.72-1.67l-2.28-2.38c-1.01-1.12-1.62-2.43-1.62-4.06v-11.01c0-1.57.46-3.09,1.47-4.11l2.33-2.33c1.22-1.17,3.35-1.67,5.27-1.67h4.87c1.93,0,4.06.51,5.33,1.67ZM174.86,75.9c0-.41-.1-.61-.2-.76l-1.37-1.42c-.15-.15-.51-.36-.91-.36h-4.97c-.36,0-.71.2-.86.36l-1.42,1.42c-.1.15-.15.36-.15.76v9.48c0,.41.05.61.15.76l1.42,1.42c.15.2.46.36.86.36h4.97c.46,0,.76-.15.91-.36l1.37-1.42c.1-.15.2-.36.2-.76v-9.48Z"/>
      <path class="cls-3" d="M192.51,85.39c0,.71,1.67,2.54,2.54,2.54h6.44v-18.77c0-1.83.76-2.13,2.28-2.13h2.13c1.67,0,2.23.51,2.23,2.13v23.08c0,1.42-.56,2.03-1.98,2.03h-11.56c-1.88,0-3.5-.46-4.72-1.67l-2.38-2.33c-1.07-1.07-1.57-2.33-1.57-3.96v-17.14c0-1.62.51-2.13,2.08-2.13h2.33c1.72,0,2.18.51,2.18,2.13v16.23Z"/>
      <path class="cls-3" d="M235.42,92.13c0,1.47-.66,2.13-2.59,2.13h-11.01c-1.88.05-3.55-.51-4.77-1.67l-2.33-2.33c-1.01-1.01-1.52-2.54-1.52-4.11v-11.01c.05-1.57.46-3.04,1.52-4.11l2.33-2.33c1.22-1.22,2.89-1.67,4.77-1.67h7v-10.35c0-1.72.46-2.03,1.98-2.03h2.79c1.47,0,1.83.56,1.83,2.03v35.45ZM219.8,85.39c0,.36.1.61.2.76l1.42,1.37c.25.25.41.41.86.41h6.54v-14.56h-6.39c-.36,0-.86.2-1.07.46l-1.37,1.37c-.1.15-.2.36-.2.71v9.48Z"/>
      <path class="cls-3" d="M276.2,92.08c0,1.57-.41,2.18-2.23,2.18h-2.54c-1.42,0-2.18-.56-2.18-2.08v-18.46l-7.2,18.97c-.25.71-.61,1.57-1.93,1.57h-2.74c-1.07,0-1.47-.46-1.88-1.62l-7.2-19.02v18.51c0,1.52-.41,2.13-2.13,2.13h-2.64c-1.67,0-2.18-.36-2.18-2.13v-32.86c0-1.62.46-2.13,2.18-2.13h3.35c1.37,0,1.93.3,2.38,1.72l9.53,25.87,9.43-25.82c.3-1.01.91-1.78,2.18-1.78h3.55c1.78,0,2.23.51,2.23,2.13v32.81Z"/>
      <path class="cls-3" d="M284.37,92.59l-1.83-1.83c-1.01-1.01-1.57-2.03-1.57-3.7v-2.89c0-1.57.46-2.59,1.47-3.65l1.98-1.93c1.22-1.17,2.28-1.62,4.26-1.62h8.22v-1.07c0-.41-.1-.71-.2-.81l-1.37-1.37c-.2-.15-.61-.36-.91-.36h-9.18c-1.67,0-2.23-.41-2.23-1.98v-2.28c0-1.62.46-2.08,2.13-2.08h10.19c1.93,0,3.04.46,4.26,1.67l2.33,2.33c1.01,1.07,1.57,2.28,1.57,3.65v17.24c0,1.78-.46,2.33-2.28,2.33h-12.53c-2.38,0-3.09-.46-4.31-1.67ZM287.56,85.94c0,.36.1.56.2.66l.91.91c.25.2.46.41.96.41h7.25v-4.62h-7.25c-.46,0-.71.15-.86.3l-1.01,1.01c-.15.1-.2.36-.2.66v.66Z"/>
      <path class="cls-3" d="M317.74,67.03h6.95c1.47,0,2.03.56,2.03,2.03v2.23c0,1.62-.56,2.08-2.03,2.08h-6.95v12.02c0,.51.15,1.06.25,1.17l.96,1.01c.2.15.61.3.96.3h5.48c1.88,0,2.18.46,2.18,2.03v2.28c0,1.47-.51,2.08-2.08,2.08h-6.44c-2.03,0-3.14-.36-4.36-1.57l-2.03-1.98c-1.47-1.52-1.52-2.54-1.52-4.51v-12.83h-3.09c-1.67,0-2.08-.3-2.08-2.54v-1.72c0-1.37.41-2.08,2.08-2.08h3.09v-6.24c0-1.47.46-2.03,2.08-2.03h2.54c1.72,0,1.98.56,1.98,2.03v6.24Z"/>
      <path class="cls-3" d="M349.09,68.7l1.88,1.88c1.07,1.06,1.62,2.54,1.62,4.11v5.88c0,2.18-1.12,2.94-3.25,2.94h-13.24v1.88c0,.41.05.66.15.76l1.47,1.42c.15.2.41.36.86.36h10.09c1.83,0,2.18.41,2.18,1.98v2.28c0,1.47-.3,2.08-2.13,2.08h-11.01c-2.03,0-2.99-.51-4.26-1.67l-2.49-2.28c-1.12-1.01-1.47-2.54-1.47-4.16v-11.01c0-1.57.51-3.09,1.52-4.11l2.43-2.33c1.22-1.17,2.74-1.67,4.67-1.67h6.24c1.88,0,3.5.46,4.72,1.67ZM346,75.24c0-.3-.05-.61-.25-.76l-1.27-1.01c-.2-.15-.66-.25-.96-.3h-4.92c-.41,0-.66.2-.81.36l-1.52,1.47c-.1.1-.15.36-.15.71v1.93h9.89v-2.38Z"/>
    </g>
  </g>
  <g>
    <path class="cls-2" d="M78.47,83.79c2.47-.66,4.59-2.65,5.26-5.12l8.17-30.5,2.63-9.81s-2.28,7.97-13.92,11.09l-48.67,13.04h0c-7.68,2.06-15.5-.32-20.74-5.56l-3.8-3.79c-1.04-1.02-1.76-2.19-2.25-3.41-3.66,3-4.77,6.16-4.91,6.6-.64,2.46.06,5.08,1.86,6.88l5.74,5.74,23.7,23.7c1.81,1.81,4.45,2.52,6.92,1.85l40.02-10.72Z"/>
    <path class="cls-1" d="M16.27,10.97c-2.47.66-4.59,2.65-5.26,5.12L2.34,48.46.22,56.39s2.28-7.97,13.92-11.09l48.68-13.04h0s0,0,0,0h0c7.68-2.06,15.5.32,20.74,5.56l3.8,3.79c1.03,1.02,1.75,2.19,2.25,3.41,3.66-3,4.77-6.16,4.91-6.6.65-2.46-.06-5.08-1.86-6.88l-5.74-5.74L63.21,2.1c-1.81-1.81-4.45-2.52-6.92-1.85L16.27,10.97Z"/>
  </g>
</svg>