<?xml version="1.0" encoding="UTF-8"?>
<svg id="Layer_2" data-name="Layer 2" xmlns="http://www.w3.org/2000/svg" viewBox="0 0 99.75 36.98">
  <defs>
    <style>
      .cls-1 {
        fill: #d70751;
      }
    </style>
  </defs>
  <g id="svg2063">
    <g id="g1">
      <path id="path2053" class="cls-1" d="M17.75,19.54c-.61,0,.12.31.92.44.22-.17.42-.35.6-.52-.5.12-1,.12-1.52.08M21.04,18.72c.37-.5.63-1.06.73-1.63-.08.41-.3.76-.51,1.13-1.15.72-.11-.43,0-.87-1.23,1.55-.17.93-.21,1.36M22.26,15.56c.07-1.1-.22-.75-.31-.33.11.06.2.78.31.33M15.43.48c.33.06.71.1.65.18.36-.08.44-.15-.65-.18M16.08.66l-.23.05.21-.02.02-.03"/>
      <path id="path2055" class="cls-1" d="M26.28,15.98c.04.99-.29,1.47-.58,2.32l-.53.26c-.43.84.04.53-.27,1.2-.68.6-2.05,1.88-2.49,2-.32,0,.22-.38.29-.53-.91.62-.73.93-2.11,1.31l-.04-.09c-3.42,1.61-8.16-1.58-8.1-5.92-.04.28-.1.21-.18.32-.18-2.24,1.03-4.48,3.07-5.4,1.99-.99,4.33-.58,5.76.75-.78-1.03-2.35-2.12-4.2-2.02-1.81.03-3.51,1.18-4.08,2.43-.93.58-1.04,2.25-1.44,2.56-.54,4,1.02,5.73,3.68,7.76.42.28.12.32.17.54-.88-.41-1.69-1.04-2.35-1.8.35.52.73,1.02,1.22,1.41-.83-.28-1.94-2.01-2.27-2.09,1.43,2.57,5.81,4.5,8.11,3.54-1.06.04-2.41.02-3.6-.42-.5-.26-1.18-.79-1.06-.89,3.13,1.17,6.36.88,9.07-1.29.69-.54,1.44-1.45,1.66-1.46-.33.49.06.24-.2.67.69-1.11-.3-.45.71-1.91l.37.51c-.14-.92,1.14-2.04,1.01-3.49.29-.44.33.48.02,1.5.43-1.13.11-1.32.23-2.25.12.31.28.65.36.98-.28-1.1.29-1.85.43-2.48-.14-.06-.44.48-.5-.81.01-.56.16-.29.21-.43-.11-.06-.4-.49-.58-1.32.13-.19.34.5.52.53-.11-.66-.3-1.16-.31-1.66-.51-1.06-.18.14-.59-.46-.54-1.69.45-.39.52-1.16.82,1.19,1.29,3.03,1.5,3.79-.16-.93-.43-1.83-.75-2.7.25.11-.4-1.91.32-.58-.77-2.85-3.31-5.51-5.65-6.76.28.26.65.59.52.64-1.16-.69-.96-.75-1.12-1.04-.95-.39-1.01.03-1.63,0-1.78-.95-2.13-.85-3.77-1.44l.07.35c-1.18-.39-1.38.15-2.65,0-.08-.06.41-.22.81-.28-1.14.15-1.09-.23-2.21.04.28-.19.57-.32.86-.49-.93.06-2.22.54-1.83.1-1.52.68-4.22,1.63-5.73,3.05l-.05-.32c-.69.83-3.03,2.49-3.21,3.57l-.19.04c-.36.61-.59,1.3-.88,1.93-.47.8-.69.31-.62.44-.93,1.88-1.39,3.46-1.79,4.76.28.42,0,2.56.11,4.26-.47,8.42,5.91,16.6,12.88,18.49,1.02.37,2.54.35,3.83.39-1.52-.44-1.72-.23-3.21-.75-1.07-.51-1.31-1.08-2.07-1.74l.3.53c-1.49-.53-.87-.65-2.08-1.04l.32-.42c-.48-.04-1.28-.81-1.5-1.24l-.53.02c-.63-.78-.97-1.35-.95-1.78l-.17.3c-.19-.33-2.33-2.94-1.22-2.33-.21-.19-.48-.31-.78-.85l.23-.26c-.53-.69-.98-1.57-.95-1.86.28.38.48.46.68.52-1.35-3.35-1.43-.18-2.45-3.41l.22-.02c-.17-.25-.27-.52-.4-.79l.09-.94c-.97-1.12-.27-4.78-.13-6.78.1-.81.81-1.68,1.35-3.04l-.33-.06c.63-1.1,3.61-4.43,4.99-4.26.67-.84-.13,0-.26-.21,1.47-1.52,1.93-1.07,2.92-1.35,1.07-.63-.92.25-.41-.24,1.85-.47,1.31-1.07,3.72-1.31.25.14-.59.22-.8.41,1.54-.75,4.87-.58,7.03.42,2.51,1.17,5.33,4.64,5.44,7.9l.13.03c-.06,1.3.2,2.8-.26,4.17l.31-.65"/>
      <path id="path2057" class="cls-1" d="M11.07,20.38l-.09.43c.4.55.72,1.14,1.24,1.57-.37-.72-.64-1.02-1.15-2M12.02,20.34c-.21-.24-.34-.52-.48-.8.14.5.41.92.67,1.36l-.19-.56M28.86,16.68l-.09.23c-.16,1.17-.52,2.33-1.07,3.41.6-1.13.99-2.38,1.16-3.63M15.55.18c.41-.15,1.02-.08,1.46-.18-.57.05-1.14.08-1.71.15l.25.03M1.01,7.92c.1.88-.66,1.23.17.64.45-1.01-.17-.28-.17-.64M.03,12.01c.19-.59.23-.94.3-1.28-.53.68-.24.82-.3,1.28"/>
      <path id="path2059" d="M43.79,13.68s-.03,4.41-.08,5.55c-.05.92-.14,2.91-2.09,2.91s-2.5-2.31-2.67-3.32c-.19-1.12-.19-2.04-.19-2.45,0-1.31.08-4.95,3.16-4.95.93,0,1.44.27,1.85.49l.03,1.77h0ZM35.9,16.89c0,7.67,4.08,7.67,4.68,7.67,1.69,0,2.78-.93,3.24-2.53l.05,2.42c.52-.03,1.03-.08,1.88-.08.3,0,.54,0,.76.03.22,0,.44.03.68.05-.44-.87-.76-2.83-.76-7.07s0-11.13.35-13.25c-.98.46-1.82.76-3.67.93.73.79.73,1.2.73,4.79-.52-.16-1.17-.35-2.28-.35-4.87,0-5.66,4.24-5.66,7.4M50.65,15.49c.03-2.26.49-4.27,2.42-4.27,2.12,0,2.28,2.34,2.23,4.27h-4.65ZM58,15.77c0-3.18-.63-6.31-4.65-6.31-5.55,0-5.55,6.15-5.55,7.45,0,5.52,2.48,7.7,6.64,7.7,1.85,0,2.75-.27,3.24-.41-.03-.98.11-1.61.27-2.45-.57.35-1.31.82-2.94.82-4.24,0-4.3-3.86-4.3-5.2h7.24l.05-1.61M66.85,16.94c0,2.53-.46,5.93-3.62,5.93-.44,0-.98-.08-1.33-.16-.05-.98-.05-2.67-.05-4.62,0-2.34.24-3.56.44-4.16.57-1.93,1.85-1.96,2.09-1.96,2.07,0,2.48,2.85,2.48,4.98h0ZM59.04,19.9c0,2.01,0,3.16-.33,4.03,1.12.44,2.5.68,4.16.68,1.06,0,4.13,0,5.79-3.4.79-1.58,1.06-3.7,1.06-5.31,0-.98-.11-3.13-.9-4.49-.76-1.28-1.99-1.93-3.29-1.93-2.61,0-3.37,2.18-3.78,3.29,0-1.39.03-6.23.24-8.71-1.77.82-2.86.95-4.03,1.06,1.06.43,1.06,2.23,1.06,8.08v6.69M74.96,24.45c-.54-.08-.93-.14-1.72-.14-.87,0-1.47.06-2.09.14.27-.52.38-.76.46-2.53.11-2.42.14-8.9-.05-10.26-.14-1.03-.38-1.2-.76-1.47,2.23-.22,2.86-.38,3.89-.87-.22,1.2-.25,1.8-.25,3.62-.05,9.38-.08,10.39.52,11.51M83.67,16.75c-.05,1.71-.08,2.91-.54,3.86-.57,1.22-1.52,1.58-2.23,1.58-1.63,0-1.99-1.36-1.99-2.69,0-2.56,2.29-2.75,3.32-2.75h1.44ZM76.19,20.09c0,1.71.52,3.43,2.04,4.16.68.3,1.36.3,1.58.3,2.5,0,3.35-1.85,3.86-2.99-.03,1.2,0,1.93.08,2.88.49-.03.98-.08,1.8-.08.46,0,.9.05,1.36.08-.3-.46-.46-.74-.54-1.8-.05-1.03-.05-2.07-.05-3.51l.03-5.55c0-2.07-.54-4.11-4.63-4.11-2.69,0-4.27.82-5.06,1.22.33.6.6,1.11.84,2.29,1.06-.93,2.45-1.41,3.86-1.41,2.26,0,2.26,1.5,2.26,3.62-.52-.03-.95-.08-1.69-.08-3.46,0-5.74,1.34-5.74,4.98M99.34,21.75c.03.93.03,1.9.41,2.69-.6-.05-.95-.14-2.07-.14-.65,0-1.01.06-1.52.14.11-.35.16-.49.22-.95.08-.62.14-2.72.14-3.46v-2.94c0-1.28,0-3.13-.08-3.78-.05-.46-.19-1.71-1.77-1.71s-2.07,1.14-2.26,2.07c-.22.95-.22,1.99-.22,6.01.03,3.48.03,3.81.3,4.76-.46-.05-1.03-.11-1.85-.11-.65,0-1.09.03-1.63.11.19-.44.3-.65.35-2.18.06-1.5.16-8.84-.08-10.58-.14-1.06-.41-1.31-.71-1.58,2.2-.11,2.91-.46,3.59-.82v2.88c.33-.84,1.01-2.72,3.73-2.72,3.4,0,3.43,2.48,3.46,4.11v8.18"/>
      <path id="path2061" class="cls-1" d="M74.65,6.55l-2.25,2.25-2.25-2.25,2.25-2.25,2.25,2.25"/>
    </g>
  </g>
</svg>