<?xml version="1.0" encoding="UTF-8"?>
<svg id="Layer_2" data-name="Layer 2" xmlns="http://www.w3.org/2000/svg" viewBox="0 0 112.84 132.63">
  <defs>
    <style>
      .cls-1 {
        fill: #ce2f4d;
      }
    </style>
  </defs>
  <g id="Layer_1-2" data-name="Layer 1">
    <path class="cls-1" d="M64.07,132.63c-20.25-7.28-32.27-16.22-45.46-36.17-3.23-5.5-9.18-17.77-8.96-33.78-.53-15.96,7.54-34.36,22.59-44.17,14.54-10.36,33.3-10.52,44.46-6.43,11.52,4.27,16.18,11.39,16.32,11.05-.35.09,6.17,5.57,9.08,17.51,3.23,11.47-.05,30.5-15.88,38.28-7.28,3.9-16.73,4.61-24.15,1.82-7.41-2.99-12.79-9.56-14.58-16.42-3.91-15.14,7.58-23.54,12.64-24.4,20.62-6.87,31.07,25.4,6.95,28.14,10.99,3.67,22.33-7.61,20.17-19.1-.43-11.5-14.35-22.9-29.7-18.23-4.01,1.11-10.08,3.92-14.83,10.25-4.87,6.29-7.08,16.15-4.55,25.73,2.47,9.63,9.98,18.85,20.43,23,10.57,3.9,22.33,2.78,32.04-2.27,20.74-10.26,24.89-35.25,20.77-49-3.63-14.78-11.66-21.55-11.25-21.65-.15.4-5.92-8.38-20.19-13.71-13.96-5.09-35.71-4.73-53.14,7.49C9,22.01-.67,44.48.04,62.59c-.24,18.39,6.61,32.46,10.35,38.72,15.07,22.99,32.35,30.18,53.68,31.32"/>
  </g>
</svg>