<?xml version="1.0" encoding="UTF-8" standalone="no"?>
<svg
   id="Layer_1"
   data-name="Layer 1"
   viewBox="0 0 2063.479 360.27348"
   version="1.1"
   width="2063.479"
   height="360.27347"
   xmlns:xlink="http://www.w3.org/1999/xlink"
   xmlns="http://www.w3.org/2000/svg"
   xmlns:svg="http://www.w3.org/2000/svg">
  <g
     aria-label="우분투한국커뮤니티"
     id="text422"
     style="font-size:234.062px;font-family:'Noto Sand';-inkscape-font-specification:'Noto Sand';fill-opacity:0.7;stroke-width:1.21908">
    <path
       d="M 463.67445,258.38278 H 279.09919 V 246.03967 H 463.67445 Z M 377.95839,331.07 h -14.05744 v -78.05876 h 14.05744 z m -6.97158,-193.03257 q 20.91472,0 36.80077,5.25725 16.00033,5.25725 24.68622,15.3146 8.6859,9.94306 8.6859,23.42906 0,13.14313 -8.6859,22.9719 -8.68589,9.71449 -24.68622,15.20032 -15.88605,5.37154 -36.80077,5.25725 -20.91472,0.11429 -36.91505,-5.25725 -15.88604,-5.48583 -24.68622,-15.20032 -8.6859,-9.82877 -8.6859,-22.9719 0,-13.486 8.6859,-23.42906 8.80018,-10.05735 24.68622,-15.3146 16.00033,-5.25725 36.91505,-5.25725 z m 0,11.88596 q -16.34319,0 -28.91488,4.00008 -12.57169,3.88579 -19.54326,11.20023 -6.97158,7.31444 -6.97158,16.91464 0,9.37162 6.97158,16.57177 6.97157,7.20015 19.54326,11.20023 12.57169,4.00009 28.91488,4.00009 16.3432,0 28.91489,-4.00009 12.68598,-4.00008 19.65755,-11.20023 6.97157,-7.20015 6.97157,-16.57177 0,-9.6002 -6.97157,-16.91464 -6.97157,-7.31444 -19.65755,-11.20023 -12.57169,-4.00008 -28.91489,-4.00008 z"
       style="-inkscape-font-specification:'Pretendard Variable Light';fill-opacity:1"
       id="path1182" />
    <path
       d="M 665.96435,249.23973 H 481.3891 v -12.00025 h 184.57525 z m -84.11603,41.82944 h -14.4003 V 242.8396 h 14.4003 z m 63.42989,35.31502 H 505.61817 V 314.15536 H 645.27821 Z M 519.90418,318.38402 H 505.61817 V 271.6402 h 14.28601 z m 0.80002,-154.86035 h 106.05934 v -27.54343 h 14.28601 v 79.77308 H 506.41819 v -79.77308 h 14.28601 z m 106.05934,40.2294 V 174.7239 H 520.7042 v 29.02917 z"
       style="-inkscape-font-specification:'Pretendard Variable Light';fill-opacity:1"
       id="path1184" />
    <path
       d="M 868.25425,264.55433 H 683.679 V 252.4398 h 184.57525 z m -85.48748,66.62996 H 768.59504 V 255.297 h 14.17173 z m 64.2299,-101.48782 H 708.93666 v -12.11454 h 138.06001 z m -2.28576,-78.40163 H 723.22267 v 70.28718 h -14.28601 v -82.28743 h 135.77425 z m -4.91439,38.4008 H 718.87973 v -11.88596 h 120.91679 z"
       style="-inkscape-font-specification:'Pretendard Variable Light';fill-opacity:1"
       id="path1186" />
    <path
       d="m 1043.115,280.89753 h -14.286 V 129.6944 h 14.286 z m 31.3149,-70.9729 h -36.115 v -12.34311 h 36.115 z m -67.2014,-42.40088 H 886.88319 V 155.5235 h 120.34531 z m -60.22978,12.34311 q 14.17172,0 25.02909,4.57153 10.97166,4.57152 17.02893,13.02884 6.05726,8.34303 6.05726,19.65755 0,11.08594 -6.05726,19.42897 -6.05727,8.22875 -17.02893,12.80027 -10.85737,4.57152 -25.02909,4.57152 -14.28601,0 -25.37195,-4.57152 -10.97166,-4.57152 -16.91464,-12.80027 -5.94298,-8.34303 -5.94298,-19.42897 0,-11.31452 5.94298,-19.65755 5.94298,-8.45732 16.91464,-13.02884 11.08594,-4.57153 25.37195,-4.57153 z m 0,11.65739 q -10.17164,0 -18.1718,3.20007 -7.88588,3.08577 -12.11454,9.02875 -4.22866,5.8287 -4.22866,13.37171 0,7.42873 4.22866,13.14313 4.22866,5.7144 12.11454,8.91447 8.00016,3.08578 18.1718,3.08578 10.17164,0 17.94323,-3.08578 7.88588,-3.20007 12.22883,-8.91447 4.34294,-5.7144 4.34294,-13.14313 0,-7.54301 -4.34294,-13.37171 -4.34295,-5.94298 -12.22883,-9.02875 -7.77159,-3.20007 -17.94323,-3.20007 z m 7.20015,-29.60061 h -14.4003 V 129.6944 h 14.4003 z m 98.85923,164.46055 H 918.4267 v -12.22883 h 134.6314 z M 932.48413,319.06975 H 918.4267 v -50.40104 h 14.05743 z"
       style="-inkscape-font-specification:'Pretendard Variable Light';fill-opacity:1"
       id="path1188" />
    <path
       d="M 1243.9192,151.63771 H 1112.145 v -12.11454 h 131.7742 z m 29.2577,72.80151 h -184.6895 v -12.00025 h 184.6895 z m -85.716,45.48665 h -14.2861 v -49.60102 h 14.2861 z m 60.6869,-116.0024 q 0,17.2575 -1.1429,31.6578 -1.1428,14.4003 -5.6001,33.25783 l -14.0574,-2.05718 q 3.0858,-12.80027 4.4572,-24.0005 1.3715,-11.20023 1.7144,-19.42898 0.3428,-8.22874 0.3428,-19.42897 v -14.4003 h 14.286 z m 1.7144,177.26082 h -14.5146 V 276.4403 h -127.5455 v -12.22883 h 142.0601 z"
       style="-inkscape-font-specification:'Pretendard Variable Light';fill-opacity:1"
       id="path1190" />
    <path
       d="m 1393.0651,151.06627 q 0,30.28634 -8.9144,56.68689 -8.8002,26.40054 -29.4864,49.37245 -20.5718,22.85762 -54.6297,39.65796 l -8.4573,-11.20023 q 31.2007,-15.3146 50.6296,-35.77217 19.429,-20.45757 28.1149,-44.68664 8.6859,-24.34336 8.6859,-52.45823 v -1.60003 z m -5.4858,12.11453 h -85.4875 v -12.11453 h 85.4875 z m -92.5733,56.68689 -2.9715,-12.80026 84.4589,-5.71441 v 10.85737 z m 161.7176,111.3166 h -14.286 V 129.46582 h 14.286 z m -7.7716,-107.20223 h -56.8012 v -12.22882 h 56.8012 z"
       style="-inkscape-font-specification:'Pretendard Variable Light';fill-opacity:1"
       id="path1192" />
    <path
       d="m 1556.0399,333.0129 h -14.286 v -80.5731 h 14.286 z m 72.4586,0 h -14.286 v -80.5731 h 14.286 z m 48.9153,-73.14438 H 1492.8386 V 247.6397 h 184.5752 z m -24.5719,-41.258 h -135.5457 v -77.71589 h 135.5457 z m -121.4882,-11.77167 h 107.3165 v -53.94397 h -107.3165 z"
       style="-inkscape-font-specification:'Pretendard Variable Light';fill-opacity:1"
       id="path1194" />
    <path
       d="m 1860.5033,331.18429 h -14.286 V 129.46582 h 14.286 z m -137.2599,-57.02976 h -14.0575 V 149.58052 h 14.0575 z m 1.9429,-8.45731 q 25.029,0 49.0295,-2.28577 24.1148,-2.28576 48.8011,-7.54301 l 2.1714,12.4574 q -25.9434,5.25725 -50.2867,7.6573 -24.2291,2.40005 -49.7153,2.40005 h -16.0004 v -12.68597 z"
       style="-inkscape-font-specification:'Pretendard Variable Light';fill-opacity:1"
       id="path1196" />
    <path
       d="m 1926.9047,269.35443 q 30.7435,0 52.2297,-1.48574 21.6004,-1.48575 44.1152,-5.25725 l 1.7143,12.11453 q -22.629,3.8858 -44.4581,5.37154 -21.7147,1.37146 -53.6011,1.48575 h -15.6574 v -12.22883 z m 81.1446,-108.68796 h -82.516 v 113.1452 h -14.286 V 148.32335 h 96.802 z m -6.9716,56.45831 h -79.2016 v -12.00025 h 79.2016 z m 62.4013,114.05951 h -14.4003 V 129.46582 h 14.4003 z"
       style="-inkscape-font-specification:'Pretendard Variable Light';fill-opacity:1"
       id="path1198" />
  </g>
  <defs
     id="defs4">
    <style
       id="style2">.cls-1{fill:#1d1d1b;}.cls-2{fill:#e9500e;}.cls-3{fill:#fff;}</style>
    <linearGradient
       id="linearGradient2882">
      <stop
         style="stop-color:#ffffff;stop-opacity:1;"
         offset="0"
         id="stop2880" />
    </linearGradient>
    <linearGradient
       xlink:href="#linearGradient2882"
       id="linearGradient2884"
       x1="123.61589"
       y1="627.40137"
       x2="670.289"
       y2="627.40137"
       gradientUnits="userSpaceOnUse" />
  </defs>
  <rect
     class="cls-2"
     width="233.93118"
     height="360.27347"
     id="rect18"
     x="0"
     y="0" />
  <g
     id="g1045"
     transform="matrix(0.22517108,0,0,0.22517108,56.507438,186.40023)">
    <g
       id="g3233"
       transform="translate(-232.76557,-827.81681)"
       style="fill:#ffffff;fill-opacity:1">
      <circle
         class="cls-2"
         cx="226.58835"
         cy="1056.0741"
         r="109.02696"
         id="circle8"
         style="fill:#ffffff;fill-opacity:1" />
      <circle
         class="cls-2"
         cx="680.64508"
         cy="817.00696"
         r="109.02696"
         id="circle10"
         style="fill:#ffffff;fill-opacity:1" />
      <circle
         class="cls-2"
         cx="656.08185"
         cy="1337.2672"
         r="109.02696"
         id="circle14"
         style="fill:#ffffff;fill-opacity:1" />
    </g>
    <g
       id="g3087"
       transform="translate(-232.76557,-827.81681)"
       style="fill:#ffffff;fill-opacity:1">
      <path
         class="cls-2"
         d="m 472.48179,1336.6657 a 265.525,265.525 0 0 1 -181.07121,-138.0982 156.94811,156.94811 0 0 1 -93.21911,11.4584 354.9352,354.9352 0 0 0 255.53721,214.1645 359.21054,359.21054 0 0 0 77.41948,7.967 156.00315,156.00315 0 0 1 -31.92236,-91.1547 c -8.97973,-0.9975 -17.94861,-2.4547 -26.74401,-4.337 z"
         id="path12-8"
         style="fill:#ffffff;fill-opacity:1" />
      <path
         class="cls-2"
         d="m 807.7978,1297.2209 a 356.70056,356.70056 0 0 0 17.87488,-418.5189 157.14405,157.14405 0 0 1 -61.30976,71.80309 267.293,267.293 0 0 1 -8.73685,265.48841 156.34662,156.34662 0 0 1 52.17173,81.2274 z"
         id="path16-3"
         style="fill:#ffffff;fill-opacity:1" />
      <path
         class="cls-2"
         d="m 218.17628,899.71905 q 4.1505,-0.2277 8.30533,-0.22553 A 157.3464,157.3464 0 0 1 309.164,923.039 265.90648,265.90648 0 0 1 523.2722,808.52964 158.08773,158.08773 0 0 1 556.3482,720.1094 C 419.24532,709.25176 286.02405,780.001 218.17628,899.71905 Z"
         id="path18"
         style="fill:#ffffff;fill-opacity:1" />
    </g>
    <g
       id="g1520"
       transform="matrix(1.8074191,1.1283346,-1.1294007,1.8057128,276.76777,-138.84036)"
       style="fill:#e9500e;fill-opacity:1;stroke:#e9500e;stroke-width:9.38851;stroke-miterlimit:4;stroke-dasharray:none;stroke-opacity:1">
      <path
         id="path1101"
         style="fill:none;fill-opacity:1;stroke:#ffffff;stroke-width:35.4841;stroke-miterlimit:4;stroke-dasharray:none;stroke-opacity:1"
         d="m 396.84961,296.69336 a 264.56693,264.56693 0 0 0 -263.64063,249.46484 132.28346,132.28346 0 0 0 -0.20117,1.27344 132.28346,132.28346 0 0 0 -0.5332,6.7832 264.56693,264.56693 0 0 1 0.41797,-4.58789 132.28346,132.28346 0 0 0 -0.60938,11.63282 132.28346,132.28346 0 0 0 0.72461,13.82812 132.28346,132.28346 0 0 0 2.16602,13.67578 132.28346,132.28346 0 0 0 3.58398,13.37305 132.28346,132.28346 0 0 0 4.96289,12.92773 132.28346,132.28346 0 0 0 6.28516,12.33789 132.28346,132.28346 0 0 0 7.54102,11.61133 132.28346,132.28346 0 0 0 8.71484,10.76172 132.28346,132.28346 0 0 0 9.79101,9.79102 132.28346,132.28346 0 0 0 10.75977,8.71289 132.28346,132.28346 0 0 0 11.61328,7.54101 132.28346,132.28346 0 0 0 12.33594,6.28711 132.28346,132.28346 0 0 0 12.92773,4.96094 132.28346,132.28346 0 0 0 13.375,3.58398 132.28346,132.28346 0 0 0 13.67578,2.16602 132.28346,132.28346 0 0 0 13.82618,0.72461 132.28346,132.28346 0 0 0 13.82812,-0.72461 132.28346,132.28346 0 0 0 13.67578,-2.16602 132.28346,132.28346 0 0 0 13.375,-3.58398 132.28346,132.28346 0 0 0 12.92578,-4.96094 132.28346,132.28346 0 0 0 12.33789,-6.28711 132.28346,132.28346 0 0 0 11.61133,-7.54101 132.28346,132.28346 0 0 0 10.76172,-8.71289 132.28346,132.28346 0 0 0 9.79102,-9.79102 132.28346,132.28346 0 0 0 8.71289,-10.76172 132.28346,132.28346 0 0 0 7.54101,-11.61133 132.28346,132.28346 0 0 0 6.28711,-12.33789 132.28346,132.28346 0 0 0 4.96289,-12.92773 132.28346,132.28346 0 0 0 3.58203,-13.37305 132.28346,132.28346 0 0 0 2.16602,-13.67578 132.28346,132.28346 0 0 0 0.72461,-13.82812 132.28346,132.28346 0 0 1 2.54297,-25.80665 132.28346,132.28346 0 0 1 7.52734,-24.8164 132.28346,132.28346 0 0 1 12.22461,-22.86914 132.28346,132.28346 0 0 1 16.45117,-20.04688 132.28346,132.28346 0 0 1 20.04492,-16.45117 132.28346,132.28346 0 0 1 22.8711,-12.22461 132.28346,132.28346 0 0 1 24.81445,-7.52734 132.28346,132.28346 0 0 1 25.8086,-2.54102 132.28346,132.28346 0 0 1 9.02734,0.3086 132.28346,132.28346 0 0 1 8.98437,0.92382 132.28346,132.28346 0 0 1 8.9004,1.53516 132.28346,132.28346 0 0 1 8.77734,2.13672 132.28346,132.28346 0 0 1 8.60937,2.73437 132.28346,132.28346 0 0 1 8.40235,3.3125 132.28346,132.28346 0 0 1 8.15625,3.87891 132.28346,132.28346 0 0 1 7.875,4.42774 132.28346,132.28346 0 0 1 7.55273,4.95312 132.28346,132.28346 0 0 1 7.19727,5.45898 132.28346,132.28346 0 0 1 6.80664,5.93555 132.28346,132.28346 0 0 1 6.38672,6.38672 132.28346,132.28346 0 0 1 5.9375,6.80859 132.28346,132.28346 0 0 1 5.45703,7.19727 132.28346,132.28346 0 0 1 4.95508,7.55273 132.28346,132.28346 0 0 1 4.42578,7.87305 132.28346,132.28346 0 0 1 3.8789,8.1582 132.28346,132.28346 0 0 1 3.31446,8.40235 132.28346,132.28346 0 0 1 2.73242,8.60937 132.28346,132.28346 0 0 1 2.13867,8.77539 132.28346,132.28346 0 0 1 1.53516,8.90235 132.28346,132.28346 0 0 1 0.14257,1.38867 264.56693,264.56693 0 0 0 -263.47851,-247.94336 z m 263.47851,247.94336 a 264.56693,264.56693 0 0 1 1.08985,16.62305 132.28346,132.28346 0 0 0 -0.30859,-9.02735 132.28346,132.28346 0 0 0 -0.78126,-7.5957 z m -263.54296,12.46484 a 132.28346,132.28346 0 0 1 0.006,0.22461 132.28346,132.28346 0 0 0 -0.006,-0.22461 z m 0.0117,0.40821 a 132.28346,132.28346 0 0 1 0.004,0.14062 132.28346,132.28346 0 0 0 -0.004,-0.14062 z m 0.0312,1.38867 a 132.28346,132.28346 0 0 1 0.006,0.33789 132.28346,132.28346 0 0 0 -0.006,-0.33789 z m 0.0117,0.69531 a 132.28346,132.28346 0 0 1 0.002,0.20508 132.28346,132.28346 0 0 0 -0.002,-0.20508 z m 0.006,0.69336 a 132.28346,132.28346 0 0 1 0.002,0.13867 132.28346,132.28346 0 0 0 -0.002,-0.13867 z"
         transform="scale(0.26458333)" />
      <path
         id="path1285"
         style="fill:url(#linearGradient2884);fill-opacity:1;stroke:#ffffff;stroke-width:35.4841;stroke-miterlimit:4;stroke-dasharray:none;stroke-opacity:1"
         d="m 529.13477,428.97656 a 132.28346,132.28346 0 0 0 -25.8086,2.54102 132.28346,132.28346 0 0 0 -24.81445,7.52734 132.28346,132.28346 0 0 0 -22.8711,12.22461 132.28346,132.28346 0 0 0 -20.04492,16.45117 132.28346,132.28346 0 0 0 -16.45117,20.04688 132.28346,132.28346 0 0 0 -12.22461,22.86914 132.28346,132.28346 0 0 0 -7.52734,24.8164 132.28346,132.28346 0 0 0 -2.54297,25.80665 132.28346,132.28346 0 0 1 -0.72461,13.82812 132.28346,132.28346 0 0 1 -2.16602,13.67578 132.28346,132.28346 0 0 1 -3.58203,13.37305 132.28346,132.28346 0 0 1 -4.96289,12.92773 132.28346,132.28346 0 0 1 -6.28711,12.33789 132.28346,132.28346 0 0 1 -7.54101,11.61133 132.28346,132.28346 0 0 1 -8.71289,10.76172 132.28346,132.28346 0 0 1 -9.79102,9.79102 132.28346,132.28346 0 0 1 -10.76172,8.71289 132.28346,132.28346 0 0 1 -11.61133,7.54101 132.28346,132.28346 0 0 1 -12.33789,6.28711 132.28346,132.28346 0 0 1 -12.92578,4.96094 132.28346,132.28346 0 0 1 -13.375,3.58398 132.28346,132.28346 0 0 1 -13.67578,2.16602 132.28346,132.28346 0 0 1 -13.82812,0.72461 132.28346,132.28346 0 0 1 -13.82618,-0.72461 132.28346,132.28346 0 0 1 -13.67578,-2.16602 132.28346,132.28346 0 0 1 -13.375,-3.58398 132.28346,132.28346 0 0 1 -12.92773,-4.96094 132.28346,132.28346 0 0 1 -12.33594,-6.28711 132.28346,132.28346 0 0 1 -11.61328,-7.54101 132.28346,132.28346 0 0 1 -10.75977,-8.71289 132.28346,132.28346 0 0 1 -9.79101,-9.79102 132.28346,132.28346 0 0 1 -8.71484,-10.76172 132.28346,132.28346 0 0 1 -7.54102,-11.61133 132.28346,132.28346 0 0 1 -6.28516,-12.33789 132.28346,132.28346 0 0 1 -4.96289,-12.92773 132.28346,132.28346 0 0 1 -3.58398,-13.37305 132.28346,132.28346 0 0 1 -1.96485,-12.40234 264.56693,264.56693 0 0 0 263.64063,249.46484 264.56693,264.56693 0 0 0 263.55078,-249.03125 132.28346,132.28346 0 0 0 0.38086,-2.57031 132.28346,132.28346 0 0 0 0.63672,-12.96484 132.28346,132.28346 0 0 0 -0.30859,-9.02735 132.28346,132.28346 0 0 0 -0.92383,-8.98437 132.28346,132.28346 0 0 0 -1.53516,-8.90235 132.28346,132.28346 0 0 0 -2.13867,-8.77539 132.28346,132.28346 0 0 0 -2.73242,-8.60937 132.28346,132.28346 0 0 0 -3.31446,-8.40235 132.28346,132.28346 0 0 0 -3.8789,-8.1582 132.28346,132.28346 0 0 0 -4.42578,-7.87305 132.28346,132.28346 0 0 0 -4.95508,-7.55273 132.28346,132.28346 0 0 0 -5.45703,-7.19727 132.28346,132.28346 0 0 0 -5.9375,-6.80859 132.28346,132.28346 0 0 0 -6.38672,-6.38672 132.28346,132.28346 0 0 0 -6.80664,-5.93555 132.28346,132.28346 0 0 0 -7.19727,-5.45898 132.28346,132.28346 0 0 0 -7.55273,-4.95312 132.28346,132.28346 0 0 0 -7.875,-4.42774 132.28346,132.28346 0 0 0 -8.15625,-3.87891 132.28346,132.28346 0 0 0 -8.40235,-3.3125 132.28346,132.28346 0 0 0 -8.60937,-2.73437 132.28346,132.28346 0 0 0 -8.77734,-2.13672 132.28346,132.28346 0 0 0 -8.9004,-1.53516 132.28346,132.28346 0 0 0 -8.98437,-0.92382 132.28346,132.28346 0 0 0 -9.02734,-0.3086 z M 133.20898,576.36133 a 264.56693,264.56693 0 0 1 -0.73437,-8.05664 132.28346,132.28346 0 0 0 0.5332,6.7832 132.28346,132.28346 0 0 0 0.20117,1.27344 z"
         transform="scale(0.26458333)" />
    </g>
  </g>
</svg>
