<?xml version="1.0" encoding="UTF-8" standalone="no"?>
<svg
   id="Layer_1"
   data-name="Layer 1"
   viewBox="0 0 2900 360.00001"
   version="1.1"
   sodipodi:docname="UbuntuKrLogo.svg"
   inkscape:version="1.2.2 (b0a8486541, 2022-12-01)"
   width="2900"
   height="360"
   xmlns:inkscape="http://www.inkscape.org/namespaces/inkscape"
   xmlns:sodipodi="http://sodipodi.sourceforge.net/DTD/sodipodi-0.dtd"
   xmlns:xlink="http://www.w3.org/1999/xlink"
   xmlns="http://www.w3.org/2000/svg"
   xmlns:svg="http://www.w3.org/2000/svg">
  <sodipodi:namedview
     id="namedview33"
     pagecolor="#ffffff"
     bordercolor="#666666"
     borderopacity="1.0"
     inkscape:pageshadow="2"
     inkscape:pageopacity="0.0"
     inkscape:pagecheckerboard="0"
     showgrid="false"
     inkscape:zoom="1.5121113"
     inkscape:cx="409.3614"
     inkscape:cy="122.34549"
     inkscape:window-width="1854"
     inkscape:window-height="1043"
     inkscape:window-x="0"
     inkscape:window-y="0"
     inkscape:window-maximized="1"
     inkscape:current-layer="text3267"
     inkscape:showpageshadow="2"
     inkscape:deskcolor="#d1d1d1" />
  <defs
     id="defs4">
    <style
       id="style2">.cls-1{fill:#1d1d1b;}.cls-2{fill:#e9500e;}.cls-3{fill:#fff;}</style>
    <linearGradient
       id="linearGradient2882"
       inkscape:swatch="solid">
      <stop
         style="stop-color:#ffffff;stop-opacity:1;"
         offset="0"
         id="stop2880" />
    </linearGradient>
    <linearGradient
       inkscape:collect="always"
       xlink:href="#linearGradient2882"
       id="linearGradient2884"
       x1="123.61589"
       y1="627.40137"
       x2="670.289"
       y2="627.40137"
       gradientUnits="userSpaceOnUse" />
  </defs>
  <rect
     class="cls-2"
     width="233.93118"
     height="360.27347"
     id="rect18"
     x="0"
     y="0" />
  <g
     id="g1045"
     transform="matrix(0.22517108,0,0,0.22517108,56.507438,186.40023)">
    <g
       id="g3233"
       transform="translate(-232.76557,-827.81681)"
       style="fill:#ffffff;fill-opacity:1">
      <circle
         class="cls-2"
         cx="226.58835"
         cy="1056.0741"
         r="109.02696"
         id="circle8"
         style="fill:#ffffff;fill-opacity:1" />
      <circle
         class="cls-2"
         cx="680.64508"
         cy="817.00696"
         r="109.02696"
         id="circle10"
         style="fill:#ffffff;fill-opacity:1" />
      <circle
         class="cls-2"
         cx="656.08185"
         cy="1337.2672"
         r="109.02696"
         id="circle14"
         style="fill:#ffffff;fill-opacity:1" />
    </g>
    <g
       id="g3087"
       transform="translate(-232.76557,-827.81681)"
       style="fill:#ffffff;fill-opacity:1">
      <path
         class="cls-2"
         d="m 472.48179,1336.6657 a 265.525,265.525 0 0 1 -181.07121,-138.0982 156.94811,156.94811 0 0 1 -93.21911,11.4584 354.9352,354.9352 0 0 0 255.53721,214.1645 359.21054,359.21054 0 0 0 77.41948,7.967 156.00315,156.00315 0 0 1 -31.92236,-91.1547 c -8.97973,-0.9975 -17.94861,-2.4547 -26.74401,-4.337 z"
         id="path12-8"
         style="fill:#ffffff;fill-opacity:1" />
      <path
         class="cls-2"
         d="m 807.7978,1297.2209 a 356.70056,356.70056 0 0 0 17.87488,-418.5189 157.14405,157.14405 0 0 1 -61.30976,71.80309 267.293,267.293 0 0 1 -8.73685,265.48841 156.34662,156.34662 0 0 1 52.17173,81.2274 z"
         id="path16-3"
         style="fill:#ffffff;fill-opacity:1" />
      <path
         class="cls-2"
         d="m 218.17628,899.71905 q 4.1505,-0.2277 8.30533,-0.22553 A 157.3464,157.3464 0 0 1 309.164,923.039 265.90648,265.90648 0 0 1 523.2722,808.52964 158.08773,158.08773 0 0 1 556.3482,720.1094 C 419.24532,709.25176 286.02405,780.001 218.17628,899.71905 Z"
         id="path18"
         style="fill:#ffffff;fill-opacity:1" />
    </g>
    <g
       id="g1520"
       transform="matrix(1.8074191,1.1283346,-1.1294007,1.8057128,276.76777,-138.84036)"
       style="fill:#e9500e;fill-opacity:1;stroke:#e9500e;stroke-width:9.38851;stroke-miterlimit:4;stroke-dasharray:none;stroke-opacity:1">
      <path
         id="path1101"
         style="fill:none;fill-opacity:1;stroke:#ffffff;stroke-width:35.4841;stroke-miterlimit:4;stroke-dasharray:none;stroke-opacity:1"
         d="m 396.84961,296.69336 a 264.56693,264.56693 0 0 0 -263.64063,249.46484 132.28346,132.28346 0 0 0 -0.20117,1.27344 132.28346,132.28346 0 0 0 -0.5332,6.7832 264.56693,264.56693 0 0 1 0.41797,-4.58789 132.28346,132.28346 0 0 0 -0.60938,11.63282 132.28346,132.28346 0 0 0 0.72461,13.82812 132.28346,132.28346 0 0 0 2.16602,13.67578 132.28346,132.28346 0 0 0 3.58398,13.37305 132.28346,132.28346 0 0 0 4.96289,12.92773 132.28346,132.28346 0 0 0 6.28516,12.33789 132.28346,132.28346 0 0 0 7.54102,11.61133 132.28346,132.28346 0 0 0 8.71484,10.76172 132.28346,132.28346 0 0 0 9.79101,9.79102 132.28346,132.28346 0 0 0 10.75977,8.71289 132.28346,132.28346 0 0 0 11.61328,7.54101 132.28346,132.28346 0 0 0 12.33594,6.28711 132.28346,132.28346 0 0 0 12.92773,4.96094 132.28346,132.28346 0 0 0 13.375,3.58398 132.28346,132.28346 0 0 0 13.67578,2.16602 132.28346,132.28346 0 0 0 13.82618,0.72461 132.28346,132.28346 0 0 0 13.82812,-0.72461 132.28346,132.28346 0 0 0 13.67578,-2.16602 132.28346,132.28346 0 0 0 13.375,-3.58398 132.28346,132.28346 0 0 0 12.92578,-4.96094 132.28346,132.28346 0 0 0 12.33789,-6.28711 132.28346,132.28346 0 0 0 11.61133,-7.54101 132.28346,132.28346 0 0 0 10.76172,-8.71289 132.28346,132.28346 0 0 0 9.79102,-9.79102 132.28346,132.28346 0 0 0 8.71289,-10.76172 132.28346,132.28346 0 0 0 7.54101,-11.61133 132.28346,132.28346 0 0 0 6.28711,-12.33789 132.28346,132.28346 0 0 0 4.96289,-12.92773 132.28346,132.28346 0 0 0 3.58203,-13.37305 132.28346,132.28346 0 0 0 2.16602,-13.67578 132.28346,132.28346 0 0 0 0.72461,-13.82812 132.28346,132.28346 0 0 1 2.54297,-25.80665 132.28346,132.28346 0 0 1 7.52734,-24.8164 132.28346,132.28346 0 0 1 12.22461,-22.86914 132.28346,132.28346 0 0 1 16.45117,-20.04688 132.28346,132.28346 0 0 1 20.04492,-16.45117 132.28346,132.28346 0 0 1 22.8711,-12.22461 132.28346,132.28346 0 0 1 24.81445,-7.52734 132.28346,132.28346 0 0 1 25.8086,-2.54102 132.28346,132.28346 0 0 1 9.02734,0.3086 132.28346,132.28346 0 0 1 8.98437,0.92382 132.28346,132.28346 0 0 1 8.9004,1.53516 132.28346,132.28346 0 0 1 8.77734,2.13672 132.28346,132.28346 0 0 1 8.60937,2.73437 132.28346,132.28346 0 0 1 8.40235,3.3125 132.28346,132.28346 0 0 1 8.15625,3.87891 132.28346,132.28346 0 0 1 7.875,4.42774 132.28346,132.28346 0 0 1 7.55273,4.95312 132.28346,132.28346 0 0 1 7.19727,5.45898 132.28346,132.28346 0 0 1 6.80664,5.93555 132.28346,132.28346 0 0 1 6.38672,6.38672 132.28346,132.28346 0 0 1 5.9375,6.80859 132.28346,132.28346 0 0 1 5.45703,7.19727 132.28346,132.28346 0 0 1 4.95508,7.55273 132.28346,132.28346 0 0 1 4.42578,7.87305 132.28346,132.28346 0 0 1 3.8789,8.1582 132.28346,132.28346 0 0 1 3.31446,8.40235 132.28346,132.28346 0 0 1 2.73242,8.60937 132.28346,132.28346 0 0 1 2.13867,8.77539 132.28346,132.28346 0 0 1 1.53516,8.90235 132.28346,132.28346 0 0 1 0.14257,1.38867 264.56693,264.56693 0 0 0 -263.47851,-247.94336 z m 263.47851,247.94336 a 264.56693,264.56693 0 0 1 1.08985,16.62305 132.28346,132.28346 0 0 0 -0.30859,-9.02735 132.28346,132.28346 0 0 0 -0.78126,-7.5957 z m -263.54296,12.46484 a 132.28346,132.28346 0 0 1 0.006,0.22461 132.28346,132.28346 0 0 0 -0.006,-0.22461 z m 0.0117,0.40821 a 132.28346,132.28346 0 0 1 0.004,0.14062 132.28346,132.28346 0 0 0 -0.004,-0.14062 z m 0.0312,1.38867 a 132.28346,132.28346 0 0 1 0.006,0.33789 132.28346,132.28346 0 0 0 -0.006,-0.33789 z m 0.0117,0.69531 a 132.28346,132.28346 0 0 1 0.002,0.20508 132.28346,132.28346 0 0 0 -0.002,-0.20508 z m 0.006,0.69336 a 132.28346,132.28346 0 0 1 0.002,0.13867 132.28346,132.28346 0 0 0 -0.002,-0.13867 z"
         transform="scale(0.26458333)" />
      <path
         id="path1285"
         style="fill:url(#linearGradient2884);fill-opacity:1;stroke:#ffffff;stroke-width:35.4841;stroke-miterlimit:4;stroke-dasharray:none;stroke-opacity:1"
         d="m 529.13477,428.97656 a 132.28346,132.28346 0 0 0 -25.8086,2.54102 132.28346,132.28346 0 0 0 -24.81445,7.52734 132.28346,132.28346 0 0 0 -22.8711,12.22461 132.28346,132.28346 0 0 0 -20.04492,16.45117 132.28346,132.28346 0 0 0 -16.45117,20.04688 132.28346,132.28346 0 0 0 -12.22461,22.86914 132.28346,132.28346 0 0 0 -7.52734,24.8164 132.28346,132.28346 0 0 0 -2.54297,25.80665 132.28346,132.28346 0 0 1 -0.72461,13.82812 132.28346,132.28346 0 0 1 -2.16602,13.67578 132.28346,132.28346 0 0 1 -3.58203,13.37305 132.28346,132.28346 0 0 1 -4.96289,12.92773 132.28346,132.28346 0 0 1 -6.28711,12.33789 132.28346,132.28346 0 0 1 -7.54101,11.61133 132.28346,132.28346 0 0 1 -8.71289,10.76172 132.28346,132.28346 0 0 1 -9.79102,9.79102 132.28346,132.28346 0 0 1 -10.76172,8.71289 132.28346,132.28346 0 0 1 -11.61133,7.54101 132.28346,132.28346 0 0 1 -12.33789,6.28711 132.28346,132.28346 0 0 1 -12.92578,4.96094 132.28346,132.28346 0 0 1 -13.375,3.58398 132.28346,132.28346 0 0 1 -13.67578,2.16602 132.28346,132.28346 0 0 1 -13.82812,0.72461 132.28346,132.28346 0 0 1 -13.82618,-0.72461 132.28346,132.28346 0 0 1 -13.67578,-2.16602 132.28346,132.28346 0 0 1 -13.375,-3.58398 132.28346,132.28346 0 0 1 -12.92773,-4.96094 132.28346,132.28346 0 0 1 -12.33594,-6.28711 132.28346,132.28346 0 0 1 -11.61328,-7.54101 132.28346,132.28346 0 0 1 -10.75977,-8.71289 132.28346,132.28346 0 0 1 -9.79101,-9.79102 132.28346,132.28346 0 0 1 -8.71484,-10.76172 132.28346,132.28346 0 0 1 -7.54102,-11.61133 132.28346,132.28346 0 0 1 -6.28516,-12.33789 132.28346,132.28346 0 0 1 -4.96289,-12.92773 132.28346,132.28346 0 0 1 -3.58398,-13.37305 132.28346,132.28346 0 0 1 -1.96485,-12.40234 264.56693,264.56693 0 0 0 263.64063,249.46484 264.56693,264.56693 0 0 0 263.55078,-249.03125 132.28346,132.28346 0 0 0 0.38086,-2.57031 132.28346,132.28346 0 0 0 0.63672,-12.96484 132.28346,132.28346 0 0 0 -0.30859,-9.02735 132.28346,132.28346 0 0 0 -0.92383,-8.98437 132.28346,132.28346 0 0 0 -1.53516,-8.90235 132.28346,132.28346 0 0 0 -2.13867,-8.77539 132.28346,132.28346 0 0 0 -2.73242,-8.60937 132.28346,132.28346 0 0 0 -3.31446,-8.40235 132.28346,132.28346 0 0 0 -3.8789,-8.1582 132.28346,132.28346 0 0 0 -4.42578,-7.87305 132.28346,132.28346 0 0 0 -4.95508,-7.55273 132.28346,132.28346 0 0 0 -5.45703,-7.19727 132.28346,132.28346 0 0 0 -5.9375,-6.80859 132.28346,132.28346 0 0 0 -6.38672,-6.38672 132.28346,132.28346 0 0 0 -6.80664,-5.93555 132.28346,132.28346 0 0 0 -7.19727,-5.45898 132.28346,132.28346 0 0 0 -7.55273,-4.95312 132.28346,132.28346 0 0 0 -7.875,-4.42774 132.28346,132.28346 0 0 0 -8.15625,-3.87891 132.28346,132.28346 0 0 0 -8.40235,-3.3125 132.28346,132.28346 0 0 0 -8.60937,-2.73437 132.28346,132.28346 0 0 0 -8.77734,-2.13672 132.28346,132.28346 0 0 0 -8.9004,-1.53516 132.28346,132.28346 0 0 0 -8.98437,-0.92382 132.28346,132.28346 0 0 0 -9.02734,-0.3086 z M 133.20898,576.36133 a 264.56693,264.56693 0 0 1 -0.73437,-8.05664 132.28346,132.28346 0 0 0 0.5332,6.7832 132.28346,132.28346 0 0 0 0.20117,1.27344 z"
         transform="scale(0.26458333)" />
    </g>
  </g>
  <g
     aria-label="Ubuntu Korea Community"
     id="text3267"
     style="font-size:226.667px;stroke-width:5.11081">
    <path
       d="m 345.01639,318.26131 q -20.40004,0 -32.86672,-7.70668 -12.46669,-7.70668 -18.36003,-21.53337 -5.89334,-13.82668 -5.89334,-32.18671 V 158.2344 h 14.50669 v 96.56015 q 0,25.84003 11.10668,38.08005 11.33335,12.24002 31.50672,12.24002 19.94669,0 31.05338,-12.24002 11.10668,-12.46668 11.10668,-38.08005 V 158.2344 h 14.73335 v 98.60015 q 0,18.13336 -5.89334,32.18671 -5.89334,13.82669 -18.36003,21.53337 -12.46668,7.70668 -32.64004,7.70668 z"
       style="-inkscape-font-specification:'Ubuntu Light'"
       id="path407" />
    <path
       d="m 481.69659,317.58131 q -8.38668,0 -16.09335,-0.90667 -7.48001,-0.90667 -13.82669,-2.26667 -6.12001,-1.36 -10.65335,-2.72001 V 141.91438 l 13.82669,-2.49334 v 66.18676 q 4.53334,-3.62667 13.37335,-6.80001 8.84001,-3.17333 19.49336,-3.17333 16.77336,0 28.56005,7.93334 11.78668,7.70668 17.90669,21.53337 6.12001,13.60002 6.12001,31.28004 0,19.04003 -7.02668,32.86672 -7.02668,13.60002 -20.17336,21.08003 -13.14669,7.25335 -31.50672,7.25335 z m 0.22667,-12.46669 q 13.82669,0 23.57337,-5.66667 9.97335,-5.89335 14.96002,-16.77336 5.21334,-10.88002 5.21334,-26.29338 0,-10.20001 -2.26667,-19.04002 -2.04,-8.84002 -7.02667,-15.18669 -4.76001,-6.57335 -12.24002,-10.20002 -7.25335,-3.62667 -17.45336,-3.62667 -10.42668,0 -19.04003,3.4 -8.38668,3.40001 -12.69335,7.02668 v 83.41346 q 4.08,1.13333 10.88001,2.04 7.02668,0.90667 16.09336,0.90667 z"
       style="-inkscape-font-specification:'Ubuntu Light'"
       id="path409" />
    <path
       d="m 617.69691,317.35464 q -17.22669,0 -27.65337,-6.12001 -10.20002,-6.34668 -14.73336,-18.36003 -4.30667,-12.01335 -4.30667,-29.46671 v -65.50676 h 13.82669 v 62.33342 q 0,16.32003 3.4,26.06671 3.40001,9.74668 10.88002,14.05335 7.48001,4.30668 20.17336,4.30668 9.06668,0 17.00003,-0.90667 7.93334,-1.13334 11.33335,-2.26667 V 197.90113 h 13.82668 V 310.7813 q -7.25334,2.26667 -18.58669,4.53334 -11.10668,2.04 -25.16004,2.04 z"
       style="-inkscape-font-specification:'Ubuntu Light'"
       id="path411" />
    <path
       d="M 700.4305,315.31464 V 202.43447 q 6.80001,-1.81334 17.90669,-4.08001 11.10668,-2.26667 26.29337,-2.26667 18.13336,0 28.10671,6.57334 9.97335,6.57335 14.05336,18.81337 4.08,12.01335 4.08,28.56004 v 65.2801 h -13.82669 v -60.74676 q 0,-16.54669 -3.17333,-26.52004 -2.94667,-10.20002 -10.42669,-14.96002 -7.25334,-4.76001 -20.62669,-4.76001 -10.20002,0 -18.13336,1.58667 -7.93335,1.36 -10.42669,2.04 v 103.36016 z"
       style="-inkscape-font-specification:'Ubuntu Light'"
       id="path413" />
    <path
       d="m 865.8974,317.35464 q -14.05335,0 -22.44003,-4.76001 -8.38668,-4.76001 -12.01335,-14.73335 -3.62667,-9.97335 -3.62667,-25.61338 V 163.44774 l 14.05335,-2.49334 v 37.40006 h 46.46674 v 11.78668 H 841.8707 v 63.46677 q 0,12.69335 2.94667,19.49336 2.94667,6.57334 8.38668,9.29335 5.66668,2.49333 13.60002,2.49333 7.93335,0 13.82669,-1.81333 5.89334,-2.04001 9.52001,-3.85334 l 2.94667,11.56002 q -3.85333,2.04 -11.33335,4.30667 -7.48001,2.26667 -15.86669,2.26667 z"
       style="-inkscape-font-specification:'Ubuntu Light'"
       id="path415" />
    <path
       d="m 961.32426,317.35464 q -17.22669,0 -27.65337,-6.12001 -10.20002,-6.34668 -14.73336,-18.36003 -4.30667,-12.01335 -4.30667,-29.46671 v -65.50676 h 13.82669 v 62.33342 q 0,16.32003 3.4,26.06671 3.40001,9.74668 10.88002,14.05335 7.48001,4.30668 20.17336,4.30668 9.06668,0 17.00003,-0.90667 7.93334,-1.13334 11.33335,-2.26667 V 197.90113 H 1005.071 V 310.7813 q -7.25335,2.26667 -18.5867,4.53334 -11.10668,2.04 -25.16004,2.04 z"
       style="-inkscape-font-specification:'Ubuntu Light'"
       id="path417" />
    <path
       d="M 1096.6445,315.31464 V 158.2344 h 14.5066 v 72.53344 q 8.8401,-7.70668 19.2667,-17.45336 10.4267,-9.74668 20.8534,-19.72003 10.4267,-10.20001 19.2667,-19.49336 9.0667,-9.29335 15.1867,-15.86669 h 17.2267 q -7.0267,7.70668 -16.5467,17.45336 -9.52,9.52001 -19.9467,19.9467 -10.4267,10.20001 -20.6267,19.72003 -9.9733,9.52001 -18.5867,17.00002 9.9734,6.34668 21.3067,16.09336 11.56,9.52001 22.8934,20.85336 11.3333,11.33335 20.8533,23.34671 9.5201,11.78668 15.8667,22.6667 h -16.5467 q -7.2533,-11.33335 -17.2267,-22.6667 -9.7466,-11.33335 -20.6267,-21.76004 -10.88,-10.42668 -21.76,-18.81336 -10.88,-8.38668 -20.8534,-13.82669 v 77.06679 z"
       style="-inkscape-font-specification:'Ubuntu Light'"
       id="path419" />
    <path
       d="m 1273.8976,317.58131 q -15.4133,0 -27.4267,-7.48001 -12.0133,-7.70668 -18.8134,-21.3067 -6.8,-13.82669 -6.8,-32.18672 0,-18.36003 6.8,-31.96005 6.8001,-13.82668 18.8134,-21.3067 12.0134,-7.70667 27.4267,-7.70667 15.8667,0 27.8801,7.70667 12.0133,7.48002 18.5867,21.3067 6.8,13.60002 6.8,31.96005 0,18.36003 -6.8,32.18672 -6.5734,13.60002 -18.5867,21.3067 -12.0134,7.48001 -27.8801,7.48001 z m 0,-12.46669 q 12.0134,0 20.6267,-5.89334 8.6134,-6.12001 13.3734,-17.00003 4.76,-10.88001 4.76,-25.61337 0,-14.73335 -4.76,-25.61337 -4.76,-10.88002 -13.3734,-16.77336 -8.6133,-6.12001 -20.6267,-6.12001 -11.7867,0 -20.4,6.12001 -8.6134,5.89334 -13.3734,16.77336 -4.76,10.88002 -4.76,25.61337 0,14.73336 4.76,25.61337 4.76,10.88002 13.3734,17.00003 8.6133,5.89334 20.4,5.89334 z"
       style="-inkscape-font-specification:'Ubuntu Light'"
       id="path421" />
    <path
       d="M 1359.3509,315.31464 V 203.79447 q 6.5733,-2.94667 16.32,-5.21334 9.9734,-2.49334 22.6667,-2.49334 4.76,0 9.0667,0.45333 4.3067,0.45334 7.9334,1.13334 3.6266,0.68 5.6666,1.58667 l -2.9466,12.01335 q -2.4934,-1.13334 -7.9334,-2.04 -5.44,-0.90667 -13.3733,-0.90667 -7.9334,0 -14.2801,1.36 -6.12,1.36 -9.2933,2.94667 v 102.68016 z"
       style="-inkscape-font-specification:'Ubuntu Light'"
       id="path423" />
    <path
       d="m 1493.8405,317.58131 q -19.9467,0 -32.8667,-7.48001 -12.6934,-7.70668 -18.8134,-21.53337 -5.8933,-13.82669 -5.8933,-32.64005 0,-18.58669 6.8,-32.18671 7.0267,-13.60003 18.5867,-20.85337 11.56,-7.25334 25.84,-7.25334 14.96,0 25.3867,6.57334 10.4267,6.34668 15.8667,18.81336 5.6667,12.46669 5.6667,30.60005 0,1.58667 -0.2267,3.85334 0,2.04 -0.2266,4.08 h -83.1868 q 0.68,22.21337 11.1067,33.77339 10.6533,11.56001 32.64,11.56001 10.4267,0 17.9067,-2.04 7.48,-2.04 11.1067,-4.08001 l 2.4933,11.78669 q -3.6267,2.26667 -12.6933,4.76001 -8.84,2.26667 -19.4934,2.26667 z m -42.8401,-69.58677 h 69.1335 q 0,-12.92002 -3.8534,-21.76004 -3.8533,-9.06668 -11.1066,-13.60002 -7.2534,-4.76001 -17.4534,-4.76001 -11.1067,0 -19.2667,5.66668 -7.9333,5.66668 -12.24,14.96002 -4.3067,9.06668 -5.2134,19.49337 z"
       style="-inkscape-font-specification:'Ubuntu Light'"
       id="path425" />
    <path
       d="m 1603.094,317.35464 q -13.3734,0 -23.3467,-3.62667 -9.9734,-3.85334 -15.4134,-11.78669 -5.44,-8.16001 -5.44,-21.08003 0,-12.24002 5.8934,-20.17336 5.8933,-7.93335 16.7733,-11.56002 11.1067,-3.85334 25.8401,-3.85334 6.5733,0 13.8266,1.13334 7.2534,1.13333 10.2001,2.49333 v -7.48001 q 0,-9.74668 -2.4934,-17.22669 -2.2666,-7.70668 -8.84,-12.01335 -6.3467,-4.30668 -18.36,-4.30668 -10.88,0 -17.9067,1.81334 -6.8,1.58667 -10.4267,2.94667 l -1.8133,-12.01335 q 4.76,-2.04 12.6933,-3.4 7.9334,-1.58667 18.5867,-1.58667 15.4134,0 24.4801,5.44 9.2933,5.21335 13.3733,14.96003 4.3067,9.52001 4.3067,22.44003 v 73.66678 q -5.8934,1.58667 -17.4534,3.4 -11.3333,1.81334 -24.48,1.81334 z m 2.04,-12.01335 q 7.48,0 14.28,-0.68 6.8,-0.68 12.0134,-1.81334 v -42.38673 q -3.4,-1.36 -9.2934,-2.49334 -5.8933,-1.13333 -14.28,-1.13333 -9.2934,0 -17.2267,2.04 -7.9333,2.04 -12.92,7.25335 -4.76,5.21334 -4.76,14.73335 0,13.14669 8.3866,18.81336 8.3867,5.66668 23.8001,5.66668 z"
       style="-inkscape-font-specification:'Ubuntu Light'"
       id="path427" />
    <path
       d="m 1801.2011,318.26131 q -21.3067,0 -37.6268,-9.52002 -16.32,-9.74668 -25.6133,-27.88004 -9.0667,-18.36003 -9.0667,-44.20007 0,-19.04002 5.6667,-34.22671 5.6666,-15.18669 15.64,-25.61338 10.2,-10.65334 23.5733,-16.09335 13.3734,-5.44001 28.3334,-5.44001 10.88,0 19.0401,1.58667 8.3866,1.58667 14.28,4.08 6.12,2.26667 9.52,4.53334 l -4.76,12.24002 q -6.12,-3.62667 -15.1867,-6.34667 -9.0667,-2.94667 -21.08,-2.94667 -18.8134,0 -32.1868,8.61334 -13.3733,8.61335 -20.6267,24.0267 -7.0266,15.41336 -7.0266,36.04006 0,20.40003 6.8,35.81339 7.0267,15.41335 19.9467,23.80003 13.1467,8.38668 31.28,8.38668 13.6,0 23.5734,-2.49334 9.9733,-2.49333 16.32,-5.66667 l 3.8534,12.24002 q -4.9867,2.72 -16.7734,5.89334 -11.56,3.17334 -27.88,3.17334 z"
       style="-inkscape-font-specification:'Ubuntu Light'"
       id="path429" />
    <path
       d="m 1918.0103,317.58131 q -15.4134,0 -27.4267,-7.48001 -12.0134,-7.70668 -18.8134,-21.3067 -6.8,-13.82669 -6.8,-32.18672 0,-18.36003 6.8,-31.96005 6.8,-13.82668 18.8134,-21.3067 12.0133,-7.70667 27.4267,-7.70667 15.8667,0 27.88,7.70667 12.0134,7.48002 18.5867,21.3067 6.8,13.60002 6.8,31.96005 0,18.36003 -6.8,32.18672 -6.5733,13.60002 -18.5867,21.3067 -12.0133,7.48001 -27.88,7.48001 z m 0,-12.46669 q 12.0133,0 20.6267,-5.89334 8.6133,-6.12001 13.3733,-17.00003 4.76,-10.88001 4.76,-25.61337 0,-14.73335 -4.76,-25.61337 -4.76,-10.88002 -13.3733,-16.77336 -8.6134,-6.12001 -20.6267,-6.12001 -11.7867,0 -20.4,6.12001 -8.6134,5.89334 -13.3734,16.77336 -4.76,10.88002 -4.76,25.61337 0,14.73336 4.76,25.61337 4.76,10.88002 13.3734,17.00003 8.6133,5.89334 20.4,5.89334 z"
       style="-inkscape-font-specification:'Ubuntu Light'"
       id="path431" />
    <path
       d="M 2003.4636,315.31464 V 202.43447 q 6.8,-1.81334 17.2267,-4.08001 10.4267,-2.26667 25.3867,-2.26667 12.0133,0 19.9467,3.40001 7.9333,3.17333 12.92,9.52001 2.72,-2.26667 8.16,-5.21334 5.44,-3.17334 13.1467,-5.44001 7.9333,-2.26667 17.2267,-2.26667 16.7733,0 25.84,6.12001 9.0667,6.12001 12.4667,17.68003 3.6267,11.56001 3.6267,27.65337 v 67.77344 h -13.8267 v -63.2401 q 0,-14.96002 -2.4933,-24.48004 -2.2667,-9.74668 -8.6134,-14.50668 -6.3467,-4.76001 -18.36,-4.76001 -7.9334,0 -14.28,1.81333 -6.1201,1.81334 -10.4267,4.53334 -4.3067,2.72001 -7.0267,4.98668 2.04,5.44001 2.9467,12.46668 1.1333,7.02668 1.1333,14.96003 v 68.22677 h -14.0533 v -63.2401 q 0,-14.96002 -2.2667,-24.48004 -2.2667,-9.74668 -8.84,-14.50668 -6.3467,-4.76001 -18.8134,-4.76001 -6.3467,0 -12.0133,0.68 -5.6667,0.68 -9.5201,1.58667 -3.8533,0.68 -5.6666,1.36 v 103.36016 z"
       style="-inkscape-font-specification:'Ubuntu Light'"
       id="path433" />
    <path
       d="M 2197.2637,315.31464 V 202.43447 q 6.8001,-1.81334 17.2267,-4.08001 10.4267,-2.26667 25.3867,-2.26667 12.0134,0 19.9467,3.40001 7.9334,3.17333 12.9201,9.52001 2.72,-2.26667 8.16,-5.21334 5.44,-3.17334 13.1467,-5.44001 7.9333,-2.26667 17.2267,-2.26667 16.7733,0 25.84,6.12001 9.0667,6.12001 12.4667,17.68003 3.6266,11.56001 3.6266,27.65337 v 67.77344 h -13.8266 v -63.2401 q 0,-14.96002 -2.4934,-24.48004 -2.2666,-9.74668 -8.6133,-14.50668 -6.3467,-4.76001 -18.36,-4.76001 -7.9334,0 -14.2801,1.81333 -6.12,1.81334 -10.4267,4.53334 -4.3066,2.72001 -7.0266,4.98668 2.04,5.44001 2.9466,12.46668 1.1334,7.02668 1.1334,14.96003 v 68.22677 h -14.0534 v -63.2401 q 0,-14.96002 -2.2666,-24.48004 -2.2667,-9.74668 -8.8401,-14.50668 -6.3466,-4.76001 -18.8133,-4.76001 -6.3467,0 -12.0134,0.68 -5.6666,0.68 -9.52,1.58667 -3.8533,0.68 -5.6667,1.36 v 103.36016 z"
       style="-inkscape-font-specification:'Ubuntu Light'"
       id="path435" />
    <path
       d="m 2436.3973,317.35464 q -17.2267,0 -27.6534,-6.12001 -10.2,-6.34668 -14.7333,-18.36003 -4.3067,-12.01335 -4.3067,-29.46671 v -65.50676 h 13.8267 v 62.33342 q 0,16.32003 3.4,26.06671 3.4,9.74668 10.88,14.05335 7.48,4.30668 20.1734,4.30668 9.0667,0 17,-0.90667 7.9334,-1.13334 11.3334,-2.26667 V 197.90113 h 13.8267 V 310.7813 q -7.2534,2.26667 -18.5867,4.53334 -11.1067,2.04 -25.1601,2.04 z"
       style="-inkscape-font-specification:'Ubuntu Light'"
       id="path437" />
    <path
       d="M 2519.1311,315.31464 V 202.43447 q 6.8,-1.81334 17.9067,-4.08001 11.1066,-2.26667 26.2933,-2.26667 18.1334,0 28.1067,6.57334 9.9734,6.57335 14.0534,18.81337 4.08,12.01335 4.08,28.56004 v 65.2801 h -13.8267 v -60.74676 q 0,-16.54669 -3.1733,-26.52004 -2.9467,-10.20002 -10.4267,-14.96002 -7.2534,-4.76001 -20.6267,-4.76001 -10.2,0 -18.1334,1.58667 -7.9333,1.36 -10.4267,2.04 v 103.36016 z"
       style="-inkscape-font-specification:'Ubuntu Light'"
       id="path439" />
    <path
       d="M 2647.6512,315.31464 V 198.35446 h 13.8267 v 116.96018 z m 7.0267,-143.93355 q -4.3067,0 -7.4801,-2.94667 -2.9466,-2.94668 -2.9466,-7.93335 0,-4.76001 2.9466,-7.70668 3.1734,-2.94667 7.4801,-2.94667 4.3066,0 7.2533,2.94667 3.1733,2.94667 3.1733,7.70668 0,4.98667 -3.1733,7.93335 -2.9467,2.94667 -7.2533,2.94667 z"
       style="-inkscape-font-specification:'Ubuntu Light'"
       id="path441" />
    <path
       d="m 2737.8647,317.35464 q -14.0533,0 -22.44,-4.76001 -8.3867,-4.76001 -12.0133,-14.73335 -3.6267,-9.97335 -3.6267,-25.61338 V 163.44774 l 14.0533,-2.49334 v 37.40006 h 46.4668 v 11.78668 h -46.4668 v 63.46677 q 0,12.69335 2.9467,19.49336 2.9467,6.57334 8.3867,9.29335 5.6667,2.49333 13.6,2.49333 7.9334,0 13.8267,-1.81333 5.8933,-2.04001 9.52,-3.85334 l 2.9467,11.56002 q -3.8533,2.04 -11.3334,4.30667 -7.48,2.26667 -15.8667,2.26667 z"
       style="-inkscape-font-specification:'Ubuntu Light'"
       id="path443" />
    <path
       d="m 2785.1624,357.92803 q -5.2133,0 -9.7467,-1.13333 -4.3066,-1.13334 -6.12,-2.26667 l 2.72,-11.33335 q 1.5867,0.90667 5.44,1.81333 4.08,1.13334 7.9334,1.13334 8.6133,0 14.5067,-2.49334 6.12,-2.49333 10.88,-8.84001 4.76,-6.12001 9.0667,-16.77336 -9.7467,-17.68003 -18.5867,-37.85339 -8.84,-20.40003 -16.0934,-41.2534 -7.0267,-21.08003 -11.7867,-40.57339 h 14.5067 q 2.72,11.78668 6.5734,24.7067 3.8533,12.69336 8.6133,26.29338 4.9867,13.37335 10.88,27.20004 5.8934,13.60002 12.4667,27.20004 6.12,-16.32003 11.1067,-32.64005 5.2133,-16.54669 9.7467,-34.45339 4.5333,-17.90669 9.0667,-38.30672 h 13.8266 q -4.5333,21.3067 -10.4266,42.84006 -5.8934,21.3067 -12.6934,41.02673 -6.5733,19.49337 -13.6,36.26672 -5.8934,14.05336 -12.24,22.66671 -6.3467,8.61334 -14.9601,12.69335 -8.3866,4.08 -21.08,4.08 z"
       style="-inkscape-font-specification:'Ubuntu Light'"
       id="path445" />
  </g>
</svg>
